<svg version="1.1" xmlns="http://www.w3.org/2000/svg" xmlns:xlink="http://www.w3.org/1999/xlink" width="139.65605" height="239.30292" viewBox="0,0,139.65605,239.30292"><defs><radialGradient cx="197.74085" cy="109.30274" r="52.17424" gradientUnits="userSpaceOnUse" id="color-1"><stop offset="0" stop-color="#00ffff"/><stop offset="1" stop-color="#0033cc"/></radialGradient></defs><g transform="translate(-73.18179,-78.5)"><g data-paper-data="{&quot;isPaintingLayer&quot;:true}" fill-rule="nonzero" stroke-miterlimit="10" stroke-dasharray="" stroke-dashoffset="0" style="mix-blend-mode: normal"><path d="M108.89486,206.07083l8.37527,-2.12416l8.13251,2.12416l-8.01113,13.65533z" fill="#0c0907" stroke="#000000" stroke-width="1" stroke-linecap="round" stroke-linejoin="round"/><g><g><path d="M108.16658,309.72996l-2.67038,-2.91314l2.24554,-1.15312l5.88696,-0.24276l0.6069,1.76002z" fill="#2b2b2b" stroke="#000000" stroke-width="1.1179" stroke-linecap="round" stroke-linejoin="round"/><path d="M114.17492,306.81682l-2.67038,6.37249c-1.03174,2.4883 -9.40701,2.18485 -10.13529,0.48552c1.57795,-3.03452 3.21659,-6.25111 4.4304,-6.9187z" fill="#2b2b2b" stroke="#000000" stroke-width="1.1179" stroke-linecap="round" stroke-linejoin="round"/><path d="M116.35977,256.20106l-0.36414,5.82627c-0.12138,2.24554 -0.36414,4.55178 -0.72828,6.79732c-0.78897,5.52282 -0.72828,19.23884 -1.63864,28.82792c-0.48552,5.21937 -0.18207,9.28563 -0.24276,10.0746c-3.52004,1.94209 -4.30902,1.94209 -7.28284,0.42483c-0.42483,-3.09521 -0.24276,-6.19042 -0.66759,-9.22493c-1.94209,-15.05121 -1.21381,-30.16311 -0.84967,-45.39639z" fill="#f4c28c" stroke="#000000" stroke-width="1" stroke-linecap="round" stroke-linejoin="round"/><g><path d="M102.3403,312.94655c-0.36414,-0.06069 -0.48552,-0.42483 -0.30345,-0.72828l3.7628,-5.34075c0.84967,1.33519 3.70211,1.15312 8.37527,0.06069l0.48552,1.82071c0.12138,0.91036 -0.12138,1.8814 -0.66759,2.549c-0.72828,0.91036 -1.21381,1.8814 -1.39588,2.91314c-0.06069,0.30345 -0.36414,0.48552 -0.66759,0.42483z" fill="#ffffff" stroke="#000000" stroke-width="1.1179" stroke-linecap="round" stroke-linejoin="round"/><path d="M113.87147,306.9989l-2.36692,6.25111c-1.03174,2.4883 -9.40701,2.18485 -10.13529,0.48552c1.57795,-3.03452 3.21659,-6.55456 4.4304,-7.22215c0.6069,2.06347 4.06625,1.33519 8.07182,0.48552z" fill="#eb5a55" stroke="#000000" stroke-width="1" stroke-linecap="butt" stroke-linejoin="miter"/><path d="M101.30857,315.85969v-1.03174c-0.06069,-2.06347 1.09243,-3.94487 2.79176,-4.55178v0c1.82071,-0.66759 3.82349,-0.42483 5.40144,0.72828c1.2745,0.91036 2.30623,1.76002 3.03452,3.1559c0.06069,0.18207 -0.06069,0.72828 -0.12138,0.84967l-0.48552,0.78897c-0.30345,0.48552 -0.78897,0.72828 -1.33519,0.91036c-3.64142,1.03174 -8.01113,0.6069 -9.28563,-0.84967z" fill="#eb5a55" stroke="none" stroke-width="1" stroke-linecap="butt" stroke-linejoin="miter"/><path d="M114.17492,306.87751l-2.67038,6.37249l-0.6069,0.72828c-0.42483,0.48552 -0.97105,0.78897 -1.57795,0.84967c-3.03452,0.30345 -5.6442,0.18207 -7.82906,-0.6069" fill="none" stroke="#000000" stroke-width="1.1179" stroke-linecap="round" stroke-linejoin="round"/><path d="M101.36926,313.73553v0c0,0 0,-0.06069 0,0c0,-0.06069 0,-0.06069 0,0z" fill="#2b2b2b" stroke="#000000" stroke-width="1.1179" stroke-linecap="round" stroke-linejoin="round"/><path d="M101.36926,313.67484c0.18207,-1.03174 1.03174,-2.4883 1.69933,-3.1559" fill="#ffffff" stroke="#000000" stroke-width="1.1179" stroke-linecap="round" stroke-linejoin="round"/><path d="M101.30857,313.73553c0.78897,1.63864 9.10355,2.00278 10.13529,-0.48552l0.18207,-0.42483c0.30345,0.36414 0.6069,0.78897 0.84967,1.2745c0.12138,0.18207 0,0.72828 -0.12138,0.84967l-0.48552,0.78897c-0.30345,0.48552 -0.84967,0.72828 -1.33519,0.91036c-3.58073,1.09243 -7.95044,0.6069 -9.22493,-0.84967v-1.03174c-0.06069,-0.36414 0,-0.66759 0,-1.03174z" fill="#ffffff" stroke="#000000" stroke-width="1.1179" stroke-linecap="round" stroke-linejoin="round"/></g><g fill="#eb5a55" stroke-width="1" stroke-linecap="butt" stroke-linejoin="miter"><path d="M105.13206,306.51337c0,0 -0.6069,-2.91314 3.09521,-3.03452c3.70211,-0.12138 4.97661,3.52004 4.97661,3.52004l-1.33519,2.12416l-6.67594,-0.42483z" stroke="none"/><path d="M104.82861,307.42373c0,0 -0.36414,-3.82349 3.39866,-3.94487c3.7628,-0.12138 5.0373,4.06625 5.0373,4.06625" stroke="#000000"/></g></g><g><path d="M124.43159,307.18097l0.6069,-1.76002l5.94766,0.24276l2.24554,1.15312l-2.67038,2.91314z" fill="#2b2b2b" stroke="#000000" stroke-width="1.1179" stroke-linecap="round" stroke-linejoin="round"/><path d="M132.92824,306.75613c1.21381,0.66759 2.85245,3.88418 4.4304,6.9187c-0.72828,1.69933 -9.10355,2.00278 -10.13529,-0.48552l-2.67038,-6.37249z" fill="#2b2b2b" stroke="#000000" stroke-width="1.1179" stroke-linecap="round" stroke-linejoin="round"/><path d="M130.6827,254.31966c1.63864,15.05121 2.24554,30.04173 1.94209,44.6681c-0.06069,3.09521 0.36414,6.12973 -0.06069,9.22493c-2.97383,1.51726 -3.7628,1.51726 -7.28284,-0.42483c-0.06069,-0.78897 -0.36414,-4.85523 -0.84967,-10.0746c-0.84967,-9.64977 -3.58073,-22.57681 -4.36971,-28.09964c-0.36414,-2.24554 -0.6069,-4.55178 -0.72828,-6.79732l-0.36414,-5.82627z" fill="#f4c28c" stroke="#000000" stroke-width="1" stroke-linecap="round" stroke-linejoin="round"/><g><path d="M126.73783,314.64588c-0.30345,0.06069 -0.6069,-0.12138 -0.66759,-0.42483c-0.18207,-1.03174 -0.66759,-2.00278 -1.39588,-2.91314c-0.54621,-0.66759 -0.78897,-1.63864 -0.66759,-2.549l0.48552,-1.82071c4.67316,1.09243 7.5256,1.2745 8.37527,-0.06069l3.7628,5.34075c0.18207,0.30345 0.06069,0.66759 -0.30345,0.72828z" fill="#ffffff" stroke="#000000" stroke-width="1.1179" stroke-linecap="round" stroke-linejoin="round"/><path d="M132.92824,306.51337c1.21381,0.66759 2.85245,4.18763 4.4304,7.22215c-0.72828,1.69933 -9.10355,2.00278 -10.13529,-0.48552l-2.36692,-6.25111c4.00556,0.84967 7.40422,1.57795 8.07182,-0.48552z" fill="#eb5a55" stroke="#000000" stroke-width="1" stroke-linecap="butt" stroke-linejoin="miter"/><path d="M128.13369,316.70935c-0.54621,-0.18207 -1.03174,-0.42483 -1.33519,-0.91036l-0.48552,-0.78897c-0.06069,-0.12138 -0.18207,-0.66759 -0.12138,-0.84967c0.72828,-1.39588 1.76002,-2.24554 3.03452,-3.1559c1.57795,-1.15312 3.58073,-1.39588 5.40144,-0.72828v0c1.69933,0.6069 2.85245,2.4883 2.79176,4.55178v1.03174c-1.33519,1.45657 -5.6442,1.8814 -9.28563,0.84967z" fill="#eb5a55" stroke="none" stroke-width="1" stroke-linecap="butt" stroke-linejoin="miter"/><path d="M137.23726,314.22105c-2.18485,0.78897 -4.79454,0.91036 -7.82906,0.6069c-0.6069,-0.06069 -1.15312,-0.36414 -1.57795,-0.84967l-0.6069,-0.72828l-2.67038,-6.37249" fill="none" stroke="#000000" stroke-width="1.1179" stroke-linecap="round" stroke-linejoin="round"/><path d="M137.35864,313.73553v0c-0.06069,0 -0.06069,-0.06069 0,0c-0.06069,-0.06069 0,-0.06069 0,0z" fill="#2b2b2b" stroke="#000000" stroke-width="1.1179" stroke-linecap="round" stroke-linejoin="round"/><path d="M135.59862,310.51894c0.66759,0.66759 1.51726,2.12416 1.69933,3.1559" fill="#ffffff" stroke="#000000" stroke-width="1.1179" stroke-linecap="round" stroke-linejoin="round"/><path d="M137.41932,314.76726v1.03174c-1.2745,1.45657 -5.6442,1.94209 -9.22493,0.84967c-0.48552,-0.18207 -1.03174,-0.42483 -1.33519,-0.91036l-0.48552,-0.78897c-0.12138,-0.12138 -0.24276,-0.66759 -0.12138,-0.84967c0.24276,-0.48552 0.54621,-0.91036 0.84967,-1.2745l0.18207,0.42483c1.03174,2.4883 9.34632,2.12416 10.13529,0.48552c0,0.36414 0,0.66759 0,1.03174z" fill="#ffffff" stroke="#000000" stroke-width="1.1179" stroke-linecap="round" stroke-linejoin="round"/></g><g fill="#eb5a55" stroke-width="1" stroke-linecap="butt" stroke-linejoin="miter"><path d="M133.53515,308.69823l-6.67594,0.42483l-1.33519,-2.12416c0,0 1.2745,-3.64142 4.97661,-3.52004c3.70211,0.12138 3.09521,3.03452 3.09521,3.03452z" stroke="none"/><path d="M125.40264,307.54511c0,0 1.2745,-4.18763 5.0373,-4.06625c3.7628,0.12138 3.39866,3.94487 3.39866,3.94487" stroke="#000000"/></g></g></g><path d="M134.74895,257.77901c-6.19042,5.0373 -29.00999,5.21937 -35.07903,0c-7.22215,-6.25111 -2.79176,-23.54786 -0.84967,-29.6169c0.48552,-1.51726 0.91036,-3.03452 1.21381,-4.61247c1.03174,-4.73385 4.67316,-13.95878 16.62916,-14.62638c0.18207,0 0.36414,0 0.54621,0c0.18207,0 0.36414,0 0.54621,0c11.956,0.66759 15.59742,9.95322 16.62916,14.62638c0.30345,1.57795 0.72828,3.09521 1.21381,4.61247c1.94209,6.06904 6.55456,23.60855 -0.84967,29.6169z" fill="#eb5a55" stroke="#000000" stroke-width="1" stroke-linecap="butt" stroke-linejoin="miter"/><g stroke-width="1"><path d="M126.2523,211.22951h-18.02504l3.09521,-2.30623c1.69933,-1.2745 2.67038,-3.03452 2.67038,-4.79454v-6.55456l2.97383,-0.66759l0.24276,-0.06069l0.18207,0.06069l2.97383,0.66759v6.55456c0,1.82071 0.97105,3.52004 2.67038,4.79454z" fill="#f4c28c" stroke="#000000" stroke-linecap="round" stroke-linejoin="round"/><path d="M120.42603,197.69556v4.73385c-2.24554,0.72828 -4.36971,0.6069 -6.43318,-0.06069v-4.36971z" fill="#aa8663" stroke="none" stroke-linecap="butt" stroke-linejoin="miter"/><path d="M126.2523,211.22951h-18.02504l3.09521,-2.30623c1.69933,-1.2745 2.67038,-3.03452 2.67038,-4.79454v-6.55456l2.97383,-0.66759l0.24276,-0.06069l0.18207,0.06069l2.97383,0.66759v6.55456c0,1.82071 0.97105,3.52004 2.67038,4.79454z" fill="none" stroke="#000000" stroke-linecap="round" stroke-linejoin="round"/></g><path d="M117.27013,137.18727c-0.24276,0 -0.48552,0 -0.66759,0v-0.06069c0.18207,0.06069 0.42483,0.06069 0.66759,0.06069z" fill="#000000" stroke="none" stroke-width="1" stroke-linecap="butt" stroke-linejoin="miter"/><path d="M117.93772,137.18727v0c-0.24276,0 -0.42483,0 -0.66759,0c0.18207,0 0.42483,0 0.66759,0z" fill="#000000" stroke="none" stroke-width="1" stroke-linecap="butt" stroke-linejoin="miter"/><g stroke-width="1"><path d="M110.23005,209.59087c4.73385,1.51726 9.40701,1.63864 14.08016,-0.06069l2.67038,3.70211l-7.70768,1.8814l-6.97939,0.12138l-3.52004,-0.84967z" fill="#eb5a55" stroke="none" stroke-linecap="butt" stroke-linejoin="miter"/><path d="M124.31021,209.53018c-4.67316,1.69933 -9.34632,1.57795 -14.08016,0.06069" fill="#f4c28c" stroke="#000000" stroke-linecap="round" stroke-linejoin="round"/></g><g stroke-width="1" stroke-linecap="butt" stroke-linejoin="miter"><path d="M116.54185,256.56521v-45.51777h1.82071v45.51777z" fill="#eb5a55" stroke="#000000"/><path d="M117.4522,213.65712v0c-0.24276,0 -0.48552,-0.18207 -0.48552,-0.48552v0c0,-0.24276 0.18207,-0.48552 0.48552,-0.48552v0c0.24276,0 0.48552,0.18207 0.48552,0.48552v0c-0.06069,0.30345 -0.24276,0.48552 -0.48552,0.48552z" fill="#ffffff" stroke="none"/><path d="M117.4522,219.72616v0c-0.24276,0 -0.48552,-0.18207 -0.48552,-0.48552v0c0,-0.24276 0.18207,-0.48552 0.48552,-0.48552v0c0.24276,0 0.48552,0.18207 0.48552,0.48552v0c-0.06069,0.30345 -0.24276,0.48552 -0.48552,0.48552z" fill="#ffffff" stroke="none"/><path d="M117.4522,225.79519v0c-0.24276,0 -0.48552,-0.18207 -0.48552,-0.48552v0c0,-0.24276 0.18207,-0.48552 0.48552,-0.48552v0c0.24276,0 0.48552,0.18207 0.48552,0.48552v0c-0.06069,0.30345 -0.24276,0.48552 -0.48552,0.48552z" fill="#ffffff" stroke="none"/><path d="M117.4522,231.86423v0c-0.24276,0 -0.48552,-0.18207 -0.48552,-0.48552v0c0,-0.24276 0.18207,-0.48552 0.48552,-0.48552v0c0.24276,0 0.48552,0.18207 0.48552,0.48552v0c-0.06069,0.30345 -0.24276,0.48552 -0.48552,0.48552z" fill="#ffffff" stroke="none"/><path d="M117.4522,237.93327v0c-0.24276,0 -0.48552,-0.18207 -0.48552,-0.48552v0c0,-0.24276 0.18207,-0.48552 0.48552,-0.48552v0c0.24276,0 0.48552,0.18207 0.48552,0.48552v0c-0.06069,0.30345 -0.24276,0.48552 -0.48552,0.48552z" fill="#ffffff" stroke="none"/><path d="M117.4522,244.0023v0c-0.24276,0 -0.48552,-0.18207 -0.48552,-0.48552v0c0,-0.24276 0.18207,-0.48552 0.48552,-0.48552v0c0.24276,0 0.48552,0.18207 0.48552,0.48552v0c-0.06069,0.30345 -0.24276,0.48552 -0.48552,0.48552z" fill="#ffffff" stroke="none"/><path d="M117.4522,250.07134v0c-0.24276,0 -0.48552,-0.18207 -0.48552,-0.48552v0c0,-0.24276 0.18207,-0.48552 0.48552,-0.48552v0c0.24276,0 0.48552,0.18207 0.48552,0.48552v0c-0.06069,0.30345 -0.24276,0.48552 -0.48552,0.48552z" fill="#ffffff" stroke="none"/></g><path d="M106.83139,249.76789h20.69541l4.30902,-0.12138c0.06069,0.42483 11.83462,33.74384 8.55734,33.50108c-8.86079,-0.66759 -7.28284,0 -11.956,1.63864c-3.27728,1.09243 -3.21659,-2.24554 -5.34075,-1.94209c-2.12416,0.30345 -4.24833,2.42761 -6.97939,2.73107c-2.73107,0.30345 -4.85523,-3.03452 -8.8001,-2.73107c-3.7628,0.24276 -4.97661,2.42761 -10.92426,1.09243c-0.54621,-0.12138 -1.2745,-0.54621 -1.09243,-1.09243c3.7628,-12.01669 3.82349,-17.47882 6.9187,-33.13694h4.61247z" fill="#424242" stroke="#000000" stroke-width="1" stroke-linecap="round" stroke-linejoin="round"/><path d="M150.04292,197.93832c-0.48552,-1.15312 -0.78897,-2.42761 -0.42483,-3.33797c1.21381,-3.03452 2.42761,-3.70211 1.39588,-5.46213c-1.03174,-1.82071 -4.00556,-4.00556 -4.00556,-4.00556c-6.55456,5.76558 6.25111,12.32014 -4.00556,17.78228c0.6069,-1.21381 0.78897,-2.24554 0.18207,-3.03452c-2.42761,-0.84967 -4.97661,-2.4883 -7.64699,-4.55178c0.12138,2.24554 1.69933,4.18763 5.0373,5.6442c-5.21937,-0.72828 -7.5256,-3.88418 -8.8001,-7.82906c-0.24276,2.85245 0.18207,5.46213 2.79176,7.46491c-2.18485,0.12138 -3.88418,-0.24276 -4.85523,-1.15312c-1.45657,0.78897 -2.67038,0.48552 -3.94487,0c-4.67316,0.12138 -8.1932,-2.24554 -11.77393,-4.36971l-10.6815,-49.82679c0.72828,-0.54621 1.45657,-1.03174 2.18485,-1.51726c6.00835,-3.64142 13.10912,-4.24833 21.36301,-1.63864c0.24276,0.06069 0.6069,0.18207 1.03174,0.30345c4.06625,1.21381 7.70768,3.39866 10.74219,6.43318c2.00278,2.00278 3.88418,4.18763 4.55178,5.82627c0.66759,1.69933 1.03174,3.45935 1.2745,5.28006c0.24276,1.63864 0.36414,3.27728 0.42483,4.91592c4.4304,5.28006 5.21937,10.92426 3.64142,16.68985c0,0 4.85523,4.30902 5.21937,7.5256c0.30345,2.60969 -4.61247,5.40144 -3.70211,8.86079z" fill="#634128" stroke="#010101" stroke-width="1" stroke-linecap="round" stroke-linejoin="round"/><path d="M114.84252,195.26794c-4.12694,3.39866 -8.98217,5.46213 -14.74776,5.94766c2.42761,-1.51726 2.85245,-3.7628 2.30623,-6.37249c-1.45657,3.88418 -4.24833,6.06904 -9.77115,4.91592c2.73107,-0.91036 4.36971,-2.549 4.79454,-5.0373c-1.39588,4.36971 -4.85523,5.88696 -9.58908,5.82627c4.73385,-3.09521 4.61247,-7.16146 0.48552,-12.07738c1.39588,8.86079 -4.97661,8.92148 -8.92148,7.16146c5.52282,0.36414 8.01113,-1.33519 6.61525,-5.6442c-2.85245,0.18207 -3.09521,-8.31458 -2.12416,-9.52839c1.15312,-1.51726 -3.09521,-4.06625 -1.51726,-8.01113c1.57795,-3.94487 6.12973,-6.12973 8.43596,-10.13529c2.36692,-4.06625 0.78897,-6.00835 2.67038,-9.40701c1.8814,-3.39866 7.04008,-5.6442 11.89531,-4.91592c2.12416,1.76002 3.70211,3.58073 2.00278,6.12973z" fill="#472912" stroke="#010101" stroke-width="1" stroke-linecap="round" stroke-linejoin="round"/><path d="M150.04292,197.93832c-0.48552,-1.15312 -0.78897,-2.42761 -0.42483,-3.33797c1.21381,-3.03452 2.42761,-3.70211 1.39588,-5.46213c-1.03174,-1.82071 -4.00556,-4.00556 -4.00556,-4.00556c-6.55456,5.76558 6.25111,12.32014 -4.00556,17.78228c0.6069,-1.21381 0.78897,-2.24554 0.18207,-3.03452c-2.42761,-0.84967 -4.97661,-2.4883 -7.64699,-4.55178c0.12138,2.24554 1.69933,4.18763 5.0373,5.6442c-5.21937,-0.72828 -7.5256,-3.88418 -8.8001,-7.82906c-0.24276,2.85245 0.18207,5.46213 2.79176,7.46491c-2.18485,0.12138 -3.88418,-0.24276 -4.85523,-1.15312c-1.45657,0.78897 -2.67038,0.48552 -3.94487,0c-4.67316,0.12138 -8.1932,-2.24554 -11.77393,-4.36971l-10.6815,-49.82679c0.72828,-0.54621 40.84461,12.86636 41.08737,14.68707c0.24276,1.63864 0.36414,3.27728 0.42483,4.91592c4.4304,5.28006 5.21937,10.92426 3.64142,16.68985c0,0 4.85523,4.30902 5.21937,7.5256c0.36414,2.60969 -4.55178,5.40144 -3.64142,8.86079z" fill="#472912" stroke="#010101" stroke-width="1" stroke-linecap="round" stroke-linejoin="round"/><g fill="#f4c28c" stroke="#000000" stroke-width="1" stroke-linecap="round" stroke-linejoin="round"><path d="M93.47951,184.2223c0,0 0.6069,1.03174 -2.85245,1.03174c-3.45935,0 -3.52004,-3.27728 -3.52004,-3.27728c0,0 -5.46213,-7.28284 -1.2745,-10.01391c1.45657,-0.91036 2.73107,-0.97105 3.82349,-0.6069"/><path d="M143.2456,171.29525c0.97105,-0.24276 2.18485,-0.12138 3.45935,0.72828c4.18763,2.73107 -1.2745,10.01391 -1.2745,10.01391c0,0 -0.06069,3.27728 -3.52004,3.27728c-3.45935,0 -2.85245,-1.03174 -2.85245,-1.03174"/></g><path d="M97.66714,187.56027c0,0 9.16424,6.25111 8.86079,8.67872c-0.30345,2.42761 -3.58073,3.64142 -3.03452,4.91592c0.48552,1.2745 2.42761,2.30623 2.42761,2.30623c0,0 -4.18763,-1.09243 -4.97661,-2.549c-0.78897,-1.45657 2.42761,-2.24554 2.549,-4.24833c0.18207,-1.94209 -5.82627,-9.10355 -5.82627,-9.10355z" fill="#634128" stroke="#010101" stroke-width="1" stroke-linecap="round" stroke-linejoin="round"/><path d="M101.49064,193.0224c0.12138,2.00278 3.33797,2.79176 2.549,4.24833c-0.78897,1.45657 -4.97661,2.549 -4.97661,2.549c0,0 1.94209,-1.03174 2.42761,-2.30623c0.54621,-1.2745 -2.73107,-2.4883 -3.03452,-4.91592c-0.30345,-2.42761 8.86079,-8.67872 8.86079,-8.67872c0,0 -6.00835,7.10077 -5.82627,9.10355z" fill="#634128" stroke="#010101" stroke-width="1" stroke-linecap="round" stroke-linejoin="round"/><path d="M107.3776,196.54244c0.97105,1.82071 4.24833,1.57795 4.06625,3.21659c-0.18207,1.63864 -3.70211,3.94487 -3.70211,3.94487c0,0 1.33519,-1.57795 1.33519,-2.91314c0,-1.33519 -3.52004,-1.51726 -4.73385,-3.70211c-1.21381,-2.12416 4.97661,-10.86357 4.97661,-10.86357c0,0 -2.91314,8.55734 -1.94209,10.31736z" fill="#634128" stroke="#010101" stroke-width="1" stroke-linecap="round" stroke-linejoin="round"/><path d="M124.91712,184.52575c0,0 9.16424,6.25111 8.86079,8.67872c-0.30345,2.42761 -3.58073,3.64142 -3.03452,4.91592c0.48552,1.2745 2.42761,2.30623 2.42761,2.30623c0,0 -4.18763,-1.09243 -4.97661,-2.549c-0.78897,-1.45657 2.42761,-2.24554 2.549,-4.24833c0.18207,-2.00278 -5.82627,-9.10355 -5.82627,-9.10355z" fill="#634128" stroke="#010101" stroke-width="1" stroke-linecap="round" stroke-linejoin="round"/><path d="M123.15709,188.40993c0,0 10.86357,3.39866 11.47048,5.76558c0.54621,2.36692 -2.06347,4.49109 -1.15312,5.52282c0.91036,1.03174 3.09521,1.51726 3.09521,1.51726c0,0 -4.36971,0.12138 -5.6442,-1.03174c-1.2745,-1.15312 1.51726,-2.79176 0.97105,-4.73385c-0.54621,-1.94209 -8.73941,-7.04008 -8.73941,-7.04008z" fill="#634128" stroke="#010101" stroke-width="1" stroke-linecap="round" stroke-linejoin="round"/><path d="M131.59304,149.14327c3.70211,2.60969 6.43318,6.37249 7.82906,10.74219v0.06069c2.30623,7.04008 6.3118,24.88305 -1.69933,32.89418c-2.30623,2.30623 -7.70768,4.4304 -12.5629,5.70489c-2.91314,0.78897 -4.73385,1.8814 -7.88975,1.8814c-3.88418,0 -6.43318,-1.33519 -9.83184,-2.42761c-4.00556,-1.2745 -8.73941,-3.1559 -10.74219,-5.21937c-8.01113,-8.01113 -4.00556,-25.85409 -1.69933,-32.89418c0.06069,-0.12138 0.06069,-0.24276 0.12138,-0.36414c1.33519,-4.18763 3.94487,-7.88975 7.46491,-10.43874c9.34632,-6.73663 18.99608,-6.9187 29.00999,0.06069z" fill="#f4c28c" stroke="#000000" stroke-width="0.8793" stroke-linecap="round" stroke-linejoin="round"/><g fill="#2b180b" stroke="none" stroke-width="1" stroke-linecap="butt" stroke-linejoin="miter"><path d="M112.11145,167.04693c-6.73663,-0.72828 -12.80567,0.24276 -18.20711,2.91314c-1.69933,-2.24554 10.62081,-6.85801 15.77949,-5.94766c4.30902,0.84967 2.73107,2.85245 2.42761,3.03452z"/><path d="M124.73504,164.01241c5.15868,-0.91036 17.47882,3.70211 15.77949,5.94766c-5.40144,-2.67038 -11.47048,-3.64142 -18.20711,-2.91314c-0.30345,-0.18207 -1.82071,-2.18485 2.42761,-3.03452z"/></g><g stroke="#000000" stroke-width="1" stroke-linecap="round" stroke-linejoin="round"><path d="M117.75565,183.85815l-0.24276,-5.52282" fill="none"/><path d="M116.96668,180.58088c1.03174,-0.06069 1.8814,0.72828 1.94209,1.76002c0.06069,1.03174 -0.72828,1.8814 -1.76002,1.94209" fill="#f4c28c"/></g><g stroke-width="1"><g><g><g fill="#000000" stroke="none" stroke-linecap="butt" stroke-linejoin="miter"><path d="M134.38481,179.67052l0.30345,0.78897l-1.57795,-0.30345z"/><path d="M136.44828,177.42498c-0.12138,0.78897 -0.30345,1.82071 0.42483,2.24554c-0.78897,-0.06069 -1.45657,-0.24276 -1.63864,-0.78897z"/><path d="M138.69383,177.66774c-0.91036,0.24276 -1.69933,0.36414 -2.30623,-0.06069l0.78897,-2.73107c0.12138,0.91036 0.6069,2.4883 1.51726,2.79176z"/><path d="M140.02901,175.17943c-0.97105,0.42483 -1.94209,0.72828 -2.67038,0.48552l-0.78897,-2.79176c0.91036,0.97105 2.24554,2.06347 3.45935,2.30623z"/><path d="M130.92546,169.65661l0.48552,-0.06069c1.21381,-0.12138 2.4883,0.12138 3.58073,0.72828c0.18207,0.12138 0.42483,0.24276 0.6069,0.36414c4.49109,2.85245 5.40144,1.63864 5.40144,1.63864c-1.03174,0.78897 -1.39588,1.94209 -3.33797,1.51726z"/></g><path d="M126.37368,171.05249c0.24276,-0.18207 0.6069,-0.36414 0.91036,-0.48552c3.58073,-1.57795 7.70768,-0.66759 9.28563,2.00278c1.57795,2.60969 -0.06069,6.06904 -3.64142,7.64699c-0.12138,0 -0.24276,0.06069 -0.36414,0.12138c-0.36414,0.12138 -0.78897,0.30345 -1.15312,0.36414c-3.1559,0.78897 -6.43318,-0.18207 -7.76837,-2.4883c-1.39588,-2.36692 -0.18207,-5.46213 2.73107,-7.16146z" fill="#ffffff" stroke="#000000" stroke-linecap="round" stroke-linejoin="round"/><g stroke="none" stroke-linecap="butt" stroke-linejoin="miter"><g><g><path d="M132.74616,175.17943c0,0.24276 0,0.48552 -0.06069,0.72828c-0.06069,0.66759 -0.30345,1.2745 -0.6069,1.76002c-0.6069,1.03174 -1.57795,1.76002 -2.67038,1.82071v0c-0.06069,0 -0.12138,0 -0.18207,0c-1.21381,0 -2.24554,-0.72828 -2.91314,-1.82071v0c-0.30345,-0.54621 -0.48552,-1.15312 -0.6069,-1.76002c-0.06069,-0.24276 -0.06069,-0.48552 -0.06069,-0.72828c0,-2.36692 1.57795,-4.30902 3.52004,-4.30902c1.94209,0 3.58073,1.94209 3.58073,4.30902z" fill="#3d2c12"/><path d="M132.13927,177.36429c0,0.12138 0,0.24276 -0.06069,0.36414c-0.6069,1.03174 -1.57795,1.76002 -2.67038,1.82071v0c-0.06069,0 -0.12138,0 -0.18207,0c-1.21381,0 -2.24554,-0.72828 -2.91314,-1.82071v0c0,-0.12138 -0.06069,-0.24276 -0.06069,-0.30345c0,-1.21381 1.33519,-2.18485 2.91314,-2.18485c1.69933,-0.06069 2.97383,0.91036 2.97383,2.12416z" fill="#704e22"/><path d="M130.33882,173.48507c-0.40166,-0.61839 -0.38548,-1.3417 0.03615,-1.61556c0.42163,-0.27386 1.08904,0.00543 1.4907,0.62382c0.40166,0.61839 0.38548,1.3417 -0.03615,1.61556c-0.42163,0.27386 -1.08904,-0.00543 -1.4907,-0.62382z" fill="#ffffff"/><path d="M131.9572,174.81529c0,-0.20111 0.08151,-0.36414 0.18207,-0.36414c0.10056,0 0.18207,0.16303 0.18207,0.36414c0,0.20111 -0.08151,0.36414 -0.18207,0.36414c-0.10056,0 -0.18207,-0.16303 -0.18207,-0.36414z" fill="#ffffff"/><path d="M126.31299,176.39324c0,-0.13407 0.10869,-0.24276 0.24276,-0.24276c0.13407,0 0.24276,0.10869 0.24276,0.24276c0,0.13407 -0.10869,0.24276 -0.24276,0.24276c-0.13407,0 -0.24276,-0.10869 -0.24276,-0.24276z" fill="#ffffff"/><path d="M127.64818,175.17943c0,-1.07259 0.70647,-1.94209 1.57795,-1.94209c0.87148,0 1.57795,0.8695 1.57795,1.94209c0,1.07259 -0.70647,1.94209 -1.57795,1.94209c-0.87148,0 -1.57795,-0.8695 -1.57795,-1.94209z" fill="#000000"/></g></g></g></g><path d="M129.28681,170.87042c1.94209,0 3.52004,1.94209 3.52004,4.30902c0,0.24276 0,0.48552 -0.06069,0.72828c-0.12138,0.6069 -0.30345,1.21381 -0.6069,1.76002v0c-0.66759,1.09243 -1.69933,1.82071 -2.91314,1.82071c-0.06069,0 -0.12138,0 -0.18207,0v0c-1.09243,-0.06069 -2.06347,-0.78897 -2.67038,-1.82071c-0.30345,-0.48552 -0.54621,-1.09243 -0.6069,-1.76002c-0.06069,-0.24276 -0.06069,-0.48552 -0.06069,-0.72828c0,-2.36692 1.63864,-4.30902 3.58073,-4.30902z" fill="none" stroke="#000000" stroke-linecap="round" stroke-linejoin="round"/></g><g><g><g fill="#000000" stroke="none" stroke-linecap="butt" stroke-linejoin="miter"><path d="M101.30857,180.15604l-1.57795,0.30345l0.30345,-0.78897z"/><path d="M99.24509,178.88155c-0.18207,0.54621 -0.84967,0.72828 -1.63864,0.78897c0.72828,-0.42483 0.54621,-1.45657 0.42483,-2.24554z"/><path d="M97.303,174.87598l0.78897,2.73107c-0.6069,0.42483 -1.39588,0.30345 -2.30623,0.06069c0.91036,-0.30345 1.39588,-1.8814 1.51726,-2.79176z"/><path d="M97.84921,172.8732l-0.78897,2.79176c-0.72828,0.24276 -1.69933,-0.06069 -2.67038,-0.48552c1.21381,-0.24276 2.60969,-1.33519 3.45935,-2.30623z"/><path d="M96.75679,173.84425c-1.94209,0.42483 -2.30623,-0.72828 -3.33797,-1.51726c0,0 0.91036,1.21381 5.40144,-1.63864c0.18207,-0.12138 0.42483,-0.24276 0.6069,-0.36414c1.09243,-0.6069 2.36692,-0.84967 3.58073,-0.72828l0.48552,0.06069z"/></g><path d="M110.77626,178.21395c-1.33519,2.30623 -4.61247,3.27728 -7.76837,2.4883c-0.36414,-0.06069 -0.78897,-0.24276 -1.15312,-0.36414c-0.12138,-0.06069 -0.24276,-0.12138 -0.36414,-0.12138c-3.58073,-1.57795 -5.21937,-5.0373 -3.64142,-7.64699c1.57795,-2.67038 5.70489,-3.58073 9.28563,-2.00278c0.30345,0.12138 0.66759,0.30345 0.91036,0.48552c2.97383,1.69933 4.18763,4.79454 2.73107,7.16146z" fill="#ffffff" stroke="#000000" stroke-linecap="round" stroke-linejoin="round"/><g stroke="none" stroke-linecap="butt" stroke-linejoin="miter"><g><g><path d="M108.71279,175.17943c0,0.24276 0,0.48552 -0.06069,0.72828c-0.06069,0.66759 -0.30345,1.2745 -0.6069,1.76002c-0.6069,1.03174 -1.57795,1.76002 -2.67038,1.82071v0c-0.06069,0 -0.12138,0 -0.18207,0c-1.21381,0 -2.24554,-0.72828 -2.91314,-1.82071v0c-0.30345,-0.54621 -0.48552,-1.15312 -0.6069,-1.76002c-0.06069,-0.24276 -0.06069,-0.48552 -0.06069,-0.72828c0,-2.36692 1.57795,-4.30902 3.52004,-4.30902c2.00278,0 3.58073,1.94209 3.58073,4.30902z" fill="#3d2c12"/><path d="M108.10589,177.36429c0,0.12138 0,0.24276 -0.06069,0.36414c-0.6069,1.03174 -1.57795,1.76002 -2.67038,1.82071v0c-0.06069,0 -0.12138,0 -0.18207,0c-1.21381,0 -2.24554,-0.72828 -2.91314,-1.82071v0c0,-0.12138 -0.06069,-0.24276 -0.06069,-0.30345c0,-1.21381 1.33519,-2.18485 2.91314,-2.18485c1.69933,-0.06069 2.97383,0.91036 2.97383,2.12416z" fill="#704e22"/><path d="M106.30667,173.48636c-0.40166,-0.61839 -0.38548,-1.3417 0.03615,-1.61556c0.42163,-0.27386 1.08904,0.00543 1.4907,0.62382c0.40166,0.61839 0.38548,1.3417 -0.03615,1.61556c-0.42163,0.27386 -1.08904,-0.00543 -1.4907,-0.62382z" fill="#ffffff"/><path d="M107.92381,174.81529c0,-0.20111 0.08151,-0.36414 0.18207,-0.36414c0.10056,0 0.18207,0.16303 0.18207,0.36414c0,0.20111 -0.08151,0.36414 -0.18207,0.36414c-0.10056,0 -0.18207,-0.16303 -0.18207,-0.36414z" fill="#ffffff"/><path d="M102.27961,176.39324c0,-0.13407 0.10869,-0.24276 0.24276,-0.24276c0.13407,0 0.24276,0.10869 0.24276,0.24276c0,0.13407 -0.10869,0.24276 -0.24276,0.24276c-0.13407,0 -0.24276,-0.10869 -0.24276,-0.24276z" fill="#ffffff"/><path d="M103.6148,175.17943c0,-1.07259 0.70647,-1.94209 1.57795,-1.94209c0.87148,0 1.57795,0.8695 1.57795,1.94209c0,1.07259 -0.70647,1.94209 -1.57795,1.94209c-0.87148,0 -1.57795,-0.8695 -1.57795,-1.94209z" fill="#000000"/></g></g></g></g><path d="M108.71279,175.17943c0,0.24276 0,0.48552 -0.06069,0.72828c-0.06069,0.66759 -0.30345,1.2745 -0.6069,1.76002c-0.6069,1.03174 -1.57795,1.76002 -2.67038,1.82071v0c-0.06069,0 -0.12138,0 -0.18207,0c-1.21381,0 -2.24554,-0.72828 -2.91314,-1.82071v0c-0.30345,-0.54621 -0.48552,-1.15312 -0.6069,-1.76002c-0.06069,-0.24276 -0.06069,-0.48552 -0.06069,-0.72828c0,-2.36692 1.57795,-4.30902 3.52004,-4.30902c2.00278,0 3.58073,1.94209 3.58073,4.30902z" fill="none" stroke="#000000" stroke-linecap="round" stroke-linejoin="round"/></g><g stroke-linecap="butt" stroke-linejoin="miter"><path d="M110.65488,180.94502h-11.89531c-1.76002,0 -3.1559,-1.39588 -3.1559,-3.1559v-4.36971c0,-1.76002 1.39588,-3.1559 3.1559,-3.1559h11.89531c1.76002,0 3.1559,1.39588 3.1559,3.1559v4.36971c0,1.76002 -1.45657,3.1559 -3.1559,3.1559z" fill="none" stroke="#000000"/><path d="M135.53793,180.94502h-11.89531c-1.76002,0 -3.1559,-1.39588 -3.1559,-3.1559v-4.36971c0,-1.76002 1.39588,-3.1559 3.1559,-3.1559h11.89531c1.76002,0 3.1559,1.39588 3.1559,3.1559v4.36971c0,1.76002 -1.45657,3.1559 -3.1559,3.1559z" fill="none" stroke="#000000"/><path d="M120.36534,175.66496c0,-1.03174 -6.67594,-1.03174 -6.67594,0v-0.91036c0,-0.72828 6.67594,-0.72828 6.67594,0z" fill="#000000" stroke="none"/></g></g><g stroke-width="1"><path d="M117.14875,191.01962c0.24276,-0.12138 0.42483,-0.24276 0.6069,-0.42483c0.12138,-0.12138 0.30345,-0.18207 0.42483,-0.06069c0.54621,0.36414 1.76002,0.6069 2.85245,0.78897c-2.60969,2.30623 -5.40144,2.36692 -7.95044,0.12138c1.09243,-0.12138 2.36692,-0.48552 2.91314,-0.91036c0.12138,-0.12138 0.30345,-0.06069 0.42483,0.06069c0.30345,0.18207 0.48552,0.30345 0.72828,0.42483z" fill="#f29568" stroke="none" stroke-linecap="butt" stroke-linejoin="miter"/><path d="M120.97224,191.56583c0,0 -2.24554,2.85245 -3.88418,2.85245c-1.63864,0 -3.7628,-2.85245 -3.7628,-2.85245c2.79176,0.36414 4.91592,0.36414 7.64699,0z" fill="#f29568" stroke="none" stroke-linecap="butt" stroke-linejoin="miter"/><path d="M121.63984,191.38376c-2.60969,0.91036 -6.3118,0.97105 -8.86079,0.06069" fill="none" stroke="#000000" stroke-linecap="round" stroke-linejoin="round"/></g><path d="M128.25508,146.95842c0,0 11.04565,-4.12694 13.47326,-3.09521c2.42761,1.09243 2.60969,4.24833 4.12694,4.24833c1.45657,0 3.27728,-1.21381 3.27728,-1.21381c0,0 -2.60969,3.1559 -4.4304,3.27728c-1.82071,0.12138 -1.51726,-2.79176 -3.58073,-3.64142c-1.03174,-0.42483 -3.82349,0 -6.43318,0.54621" fill="#634128" stroke="#010101" stroke-width="1" stroke-linecap="round" stroke-linejoin="round"/><path d="M141.00006,183.79746c0,0 9.64977,0.6069 12.13807,1.63864c2.4883,0.97105 2.42761,1.82071 2.85245,3.09521c0.42483,1.39588 4.12694,0.42483 4.67316,-0.36414c0,0 -3.33797,3.09521 -5.15868,3.33797c-1.82071,0.24276 -2.06347,-2.42761 -4.12694,-3.1559c-2.06347,-0.78897 -10.37805,-4.55178 -10.37805,-4.55178z" fill="#634128" stroke="#010101" stroke-width="1" stroke-linecap="round" stroke-linejoin="round"/><path d="M154.65539,191.50514c2.06347,0.72828 4.24833,-0.97105 5.40144,0.30345c1.15312,1.2745 1.09243,5.58351 1.09243,5.58351c0.18207,-0.91036 -1.63864,-3.94487 -3.03452,-3.21659c-1.33519,0.66759 -1.94209,1.2745 -4.49109,0.42483c-2.549,-0.84967 -9.89253,-6.43318 -9.89253,-6.43318c0,0 8.86079,2.4883 10.92426,3.33797z" fill="#634128" stroke="#010101" stroke-width="1" stroke-linecap="round" stroke-linejoin="round"/><path d="M149.5574,170.32421c2.24554,-0.06069 3.21659,-2.91314 4.85523,-2.12416c1.63864,0.78897 2.67038,4.55178 2.67038,4.55178c0,0 -1.09243,-1.76002 -2.4883,-2.24554c-1.33519,-0.54621 -2.85245,2.30623 -5.58351,2.4883c-2.73107,0.18207 -14.01947,-6.97939 -14.01947,-6.97939c0,0 12.32014,4.30902 14.56569,4.30902z" fill="#634128" stroke="#010101" stroke-width="1" stroke-linecap="round" stroke-linejoin="round"/><path d="M135.96275,174.20839c0,0 13.29119,-3.39866 15.77949,-2.42761c2.4883,0.97105 2.91314,4.12694 4.36971,4.00556c1.45657,-0.06069 3.21659,-1.39588 3.21659,-1.39588c0,0 -2.36692,3.27728 -4.18763,3.52004c-1.82071,0.24276 -1.69933,-2.73107 -3.7628,-3.45935c-2.06347,-0.72828 -15.41535,-0.24276 -15.41535,-0.24276z" fill="#634128" stroke="#010101" stroke-width="1" stroke-linecap="round" stroke-linejoin="round"/><path d="M152.83468,181.55192c2.06347,0.72828 4.24833,-0.97105 5.40144,0.30345c1.15312,1.2745 1.09243,5.58351 1.09243,5.58351c0.18207,-0.91036 -1.63864,-3.94487 -3.03452,-3.21659c-1.33519,0.66759 -1.94209,1.2745 -4.49109,0.42483c-2.549,-0.84967 -9.89253,-6.43318 -9.89253,-6.43318c0,0 8.86079,2.4883 10.92426,3.33797z" fill="#634128" stroke="#010101" stroke-width="1" stroke-linecap="round" stroke-linejoin="round"/><path d="M144.03457,171.47732c0,0 7.88975,5.0373 9.40701,7.04008c1.51726,2.00278 1.03174,2.73107 0.6069,4.00556c-0.42483,1.39588 3.27728,2.24554 4.18763,1.8814c0,0 -4.67316,1.09243 -6.3118,0.42483c-1.63864,-0.66759 -0.36414,-3.03452 -1.69933,-4.61247c-1.2745,-1.63864 -6.19042,-8.73941 -6.19042,-8.73941z" fill="#634128" stroke="#010101" stroke-width="1" stroke-linecap="round" stroke-linejoin="round"/><path d="M109.13762,145.98737c0,0 -12.13807,5.88696 -14.80845,5.46213c-2.67038,-0.42483 -3.82349,-3.45935 -5.21937,-3.09521c-1.39588,0.36414 -2.79176,1.94209 -2.79176,1.94209c0,0 1.57795,-3.64142 3.27728,-4.24833c1.69933,-0.6069 2.30623,2.30623 4.55178,2.60969c2.18485,0.36414 14.99052,-2.67038 14.99052,-2.67038z" fill="#634128" stroke="#010101" stroke-width="1" stroke-linecap="round" stroke-linejoin="round"/><path d="M83.46559,183.79746c-2.06347,0.72828 -2.30623,3.39866 -4.12694,3.1559c-1.82071,-0.24276 -5.15868,-3.33797 -5.15868,-3.33797c0.54621,0.78897 4.24833,1.76002 4.67316,0.36414c0.42483,-1.2745 0.36414,-2.12416 2.85245,-3.09521c2.4883,-1.03174 12.13807,-1.63864 12.13807,-1.63864c0,0 -8.31458,3.7628 -10.37805,4.55178z" fill="#634128" stroke="#010101" stroke-width="1" stroke-linecap="round" stroke-linejoin="round"/><path d="M91.11258,183.61539c0,0 -7.34353,5.58351 -9.89253,6.43318c-2.549,0.84967 -3.1559,0.24276 -4.49109,-0.42483c-1.39588,-0.72828 -3.21659,2.30623 -3.03452,3.21659c0,0 -0.06069,-4.30902 1.09243,-5.58351c1.15312,-1.2745 3.33797,0.42483 5.40144,-0.30345c2.06347,-0.84967 10.92426,-3.33797 10.92426,-3.33797z" fill="#634128" stroke="#010101" stroke-width="1" stroke-linecap="round" stroke-linejoin="round"/><path d="M101.67271,145.31978c-0.48552,0.36414 -0.12138,4.85523 -0.54621,5.28006c-5.58351,4.24833 -9.16424,10.62081 -9.16424,17.72159c0,5.52282 2.24554,10.49943 5.88696,14.505c2.18485,5.46213 2.60969,16.81123 1.45657,16.81123c0.18207,-0.54621 -2.30623,-2.85245 -2.85245,-2.549c-0.06069,1.57795 -3.33797,3.03452 -3.70211,2.549c1.15312,-1.15312 0.36414,-3.09521 -1.09243,-3.58073c0,0 -2.79176,3.27728 -4.61247,2.91314c1.82071,-1.63864 2.36692,-3.03452 1.39588,-5.15868c-0.48552,1.45657 -1.69933,2.85245 -3.1559,4.24833c3.21659,-6.79732 -0.48552,-5.40144 0.78897,-12.01669c-2.00278,2.4883 -3.82349,5.52282 -1.76002,9.16424c-6.06904,-2.91314 -7.58629,-8.8001 3.33797,-17.35744c0.18207,-20.81679 3.94487,-33.44039 14.01947,-32.53003z" fill="#634128" stroke="#010101" stroke-width="1" stroke-linecap="round" stroke-linejoin="round"/><path d="M99.852,161.46341c0,0 -11.28841,7.16146 -14.01947,6.97939c-2.73107,-0.18207 -4.24833,-3.03452 -5.58351,-2.4883c-1.33519,0.54621 -2.4883,2.24554 -2.4883,2.24554c0,0 1.03174,-3.7628 2.67038,-4.55178c1.63864,-0.78897 2.60969,2.06347 4.85523,2.12416c2.24554,0.06069 14.56569,-4.30902 14.56569,-4.30902z" fill="#634128" stroke="#010101" stroke-width="1" stroke-linecap="round" stroke-linejoin="round"/><path d="M147.61531,177.84981c10.92426,8.55734 9.40701,14.44431 3.33797,17.35744c2.06347,-3.64142 0.24276,-6.67594 -1.76002,-9.16424c1.2745,6.61525 -2.42761,5.21937 0.78897,12.01669c-1.45657,-1.39588 -2.67038,-2.79176 -3.1559,-4.24833c-0.97105,2.12416 -0.42483,3.52004 1.39588,5.15868c-1.82071,0.36414 -4.61247,-2.91314 -4.61247,-2.91314c-1.45657,0.48552 -2.24554,2.42761 -1.09243,3.58073c-0.36414,0.48552 -3.64142,-0.97105 -3.70211,-2.549c-0.54621,-0.30345 -3.03452,2.00278 -2.85245,2.549c-1.15312,0 -0.72828,-11.3491 1.45657,-16.81123c3.64142,-4.00556 5.88696,-8.98217 5.88696,-14.505c0,-7.16146 -34.89696,-18.08573 -40.54116,-22.33405c-0.42483,-0.42483 3.09521,-7.40422 21.12025,-5.58351c18.02504,1.82071 23.54786,16.62916 23.72993,37.44595z" fill="#634128" stroke="#010101" stroke-width="1" stroke-linecap="round" stroke-linejoin="round"/><path d="M83.46559,169.89937c-2.06347,0.72828 -1.94209,3.70211 -3.7628,3.45935c-1.82071,-0.24276 -4.18763,-3.52004 -4.18763,-3.52004c0,0 1.76002,1.2745 3.21659,1.39588c1.45657,0.12138 1.8814,-3.03452 4.36971,-4.00556c2.4883,-0.97105 15.77949,2.42761 15.77949,2.42761c0,0 -13.35188,-0.48552 -15.41535,0.24276z" fill="#634128" stroke="#010101" stroke-width="1" stroke-linecap="round" stroke-linejoin="round"/><path d="M92.9333,173.66217c0,0 -7.34353,5.58351 -9.89253,6.43318c-2.549,0.84967 -3.1559,0.24276 -4.49109,-0.42483c-1.39588,-0.72828 -3.21659,2.30623 -3.03452,3.21659c0,0 -0.06069,-4.30902 1.09243,-5.58351c1.09243,-1.2745 3.33797,0.42483 5.40144,-0.30345c2.06347,-0.72828 10.92426,-3.33797 10.92426,-3.33797z" fill="#634128" stroke="#010101" stroke-width="1" stroke-linecap="round" stroke-linejoin="round"/><path d="M92.69053,179.06362c0,0 9.16424,6.25111 8.86079,8.67872c-0.30345,2.42761 -3.58073,3.64142 -3.03452,4.91592c0.48552,1.2745 2.42761,2.30623 2.42761,2.30623c0,0 -4.18763,-1.09243 -4.97661,-2.549c-0.78897,-1.45657 2.42761,-2.24554 2.549,-4.24833c0.18207,-2.00278 -5.82627,-9.10355 -5.82627,-9.10355z" fill="#634128" stroke="#010101" stroke-width="1" stroke-linecap="round" stroke-linejoin="round"/><path d="M95.11815,178.69947c0,0 0.42483,0.91036 -2.36692,0.72828c-2.79176,-0.18207 -2.67038,-2.97383 -2.67038,-2.97383c0,0 -4.00556,-6.43318 -0.42483,-8.49665c1.2745,-0.72828 2.4883,-0.66759 3.33797,-0.30345" fill="#f4c28c" stroke="#000000" stroke-width="1" stroke-linecap="round" stroke-linejoin="round"/><path d="M141.97111,167.65383c0.84967,-0.36414 2.06347,-0.42483 3.33797,0.30345c3.58073,2.06347 -0.42483,8.49665 -0.42483,8.49665c0,0 0.12138,2.79176 -2.67038,2.97383c-2.79176,0.18207 -2.36692,-0.72828 -2.36692,-0.72828" fill="#f4c28c" stroke="#000000" stroke-width="1" stroke-linecap="round" stroke-linejoin="round"/><path d="M143.97389,162.13101c11.22772,9.22493 14.92983,16.50778 5.94766,20.39196c9.52839,-6.25111 -3.1559,-13.71602 -16.3864,-17.17537c10.37805,3.03452 9.89253,8.07182 4.24833,14.08016c3.09521,-7.04008 1.45657,-11.77393 -7.76837,-12.68429c-10.80288,-1.33519 -10.25667,-7.64699 -13.8374,-10.43874c-5.09799,-3.94487 -11.89531,-5.09799 -14.74776,-11.04565c16.50778,-2.42761 29.25275,0.06069 42.54394,16.87192z" fill="#634128" stroke="#010101" stroke-width="1" stroke-linecap="round" stroke-linejoin="round"/><path d="M102.76513,145.98737c-0.24276,0.84967 0.78897,0.54621 0.54621,1.39588c-2.12416,6.73663 -6.67594,15.47604 -11.10634,20.57403c-0.06069,-0.78897 -0.84967,-1.15312 -2.97383,-1.15312l6.3118,-15.29397c2.73107,-2.30623 5.58351,-7.16146 7.22215,-5.52282z" fill="#634128" stroke="none" stroke-width="1" stroke-linecap="butt" stroke-linejoin="miter"/><path d="M103.79687,147.01911c-2.12416,7.28284 -6.61525,15.23328 -11.65255,20.99886" fill="#634128" stroke="#010101" stroke-width="1" stroke-linecap="round" stroke-linejoin="round"/><path d="M93.5402,176.75738c0.30345,6.49387 5.94766,9.04286 4.55178,13.8374c-1.39588,4.85523 -8.8001,8.43596 -8.8001,8.43596c0,0 3.33797,-3.52004 4.24833,-7.58629c0.91036,-4.06625 -4.85523,-8.13251 -5.40144,-16.02226c-0.54621,-7.88975 14.74776,-28.9493 14.74776,-28.9493c0,0 -9.64977,23.79062 -9.34632,30.28449z" fill="#634128" stroke="#010101" stroke-width="1" stroke-linecap="round" stroke-linejoin="round"/><path d="M88.44221,153.57367c-1.57795,1.45657 -0.12138,4.12694 -1.8814,4.55178c-1.76002,0.42483 -5.46213,-1.63864 -5.46213,-1.63864c0,0 2.12416,0.54621 3.52004,0.06069c1.39588,-0.48552 0.30345,-3.45935 2.12416,-5.28006c1.8814,-1.76002 13.16981,0.24276 13.16981,0.24276c0,0 -9.95322,0.66759 -11.47048,2.06347z" fill="#634128" stroke="#010101" stroke-width="1" stroke-linecap="round" stroke-linejoin="round"/><path d="M93.47951,156.24404c-0.42483,3.27728 2.79176,4.61247 0.84967,6.73663c-1.94209,2.18485 -7.5256,3.52004 -7.5256,3.52004c0,0 3.70211,-1.15312 5.0373,-2.97383c1.33519,-1.82071 -3.82349,-4.85523 -3.45935,-8.86079c0.36414,-4.00556 13.29119,-9.34632 13.29119,-9.34632c0,0 -7.76837,7.64699 -8.1932,10.92426z" fill="#634128" stroke="#010101" stroke-width="1" stroke-linecap="round" stroke-linejoin="round"/><path d="M90.62706,175.3615c0.18207,3.70211 5.82627,5.28006 4.30902,8.01113c-1.45657,2.73107 -8.92148,4.61247 -8.92148,4.61247c0,0 3.39866,-1.94209 4.36971,-4.24833c0.97105,-2.30623 -4.06625,-4.85523 -5.09799,-9.28563c-1.15312,-4.91592 15.35466,-29.67759 16.9933,-28.82792c0,0 -11.77393,26.03616 -11.65255,29.73828z" fill="#634128" stroke="#010101" stroke-width="1" stroke-linecap="round" stroke-linejoin="round"/><path d="M84.55803,175.72565c-1.33519,1.57795 0,3.94487 -1.69933,4.61247c-1.63864,0.66759 -6.3118,-0.42483 -6.3118,-0.42483c0.91036,0.36414 4.61247,-0.48552 4.18763,-1.8814c-0.42483,-1.2745 -0.91036,-2.00278 0.6069,-4.00556c1.51726,-2.00278 9.40701,-7.04008 9.40701,-7.04008c0,0 -4.85523,7.04008 -6.19042,8.73941z" fill="#634128" stroke="#010101" stroke-width="1" stroke-linecap="round" stroke-linejoin="round"/><path d="M86.56081,162.07032c-0.54621,1.94209 2.24554,3.58073 0.97105,4.73385c-1.2745,1.15312 -5.6442,1.03174 -5.6442,1.03174c0,0 2.18485,-0.48552 3.09521,-1.51726c0.91036,-1.03174 -1.69933,-3.1559 -1.15312,-5.52282c0.6069,-2.36692 11.47048,-5.76558 11.47048,-5.76558c0,0 -8.1932,5.09799 -8.73941,7.04008z" fill="#634128" stroke="#010101" stroke-width="1" stroke-linecap="round" stroke-linejoin="round"/><path d="M86.86426,166.98624c-0.54621,1.94209 2.24554,3.58073 0.97105,4.73385c-1.2745,1.15312 -5.6442,1.03174 -5.6442,1.03174c0,0 2.18485,-0.48552 3.09521,-1.51726c0.91036,-1.03174 -1.69933,-3.1559 -1.15312,-5.52282c0.6069,-2.36692 11.3491,-10.13529 11.3491,-10.13529c0,0 -8.07182,9.40701 -8.61803,11.40979z" fill="#634128" stroke="#010101" stroke-width="1" stroke-linecap="round" stroke-linejoin="round"/><path d="M92.69053,165.83312c0.30345,4.85523 5.94766,6.79732 4.55178,10.37805c-1.39588,3.58073 -8.8001,6.3118 -8.8001,6.3118c0,0 3.33797,-2.67038 4.24833,-5.70489c0.91036,-3.03452 -4.85523,-6.06904 -5.40144,-12.01669c-0.54621,-5.88696 14.38362,-19.17815 14.38362,-19.17815c0,0 -9.28563,15.35466 -8.98217,20.20989z" fill="#634128" stroke="#010101" stroke-width="1" stroke-linecap="round" stroke-linejoin="round"/><path d="M100.88373,156.30473c0.91036,1.82071 4.24833,1.51726 4.06625,3.1559c-0.18207,1.63864 -3.64142,4.00556 -3.64142,4.00556c0,0 1.33519,-1.57795 1.33519,-2.91314c0,-1.33519 -3.58073,-1.45657 -4.79454,-3.64142c-1.2745,-2.18485 4.85523,-10.92426 4.85523,-10.92426c0,0 -2.85245,8.55734 -1.82071,10.31736z" fill="#634128" stroke="#010101" stroke-width="1" stroke-linecap="round" stroke-linejoin="round"/><path d="M97.66714,160.37099c0.91036,1.82071 4.24833,1.51726 4.06625,3.1559c-0.18207,1.63864 -3.64142,4.00556 -3.64142,4.00556c0,0 1.33519,-1.57795 1.33519,-2.91314c0,-1.33519 -3.58073,-1.45657 -4.79454,-3.64142c-1.2745,-2.18485 4.85523,-10.92426 4.85523,-10.92426c0,0 -2.73107,8.49665 -1.82071,10.31736z" fill="#634128" stroke="#010101" stroke-width="1" stroke-linecap="round" stroke-linejoin="round"/><path d="M149.98223,165.77243c2.24554,-0.06069 3.21659,-2.91314 4.85523,-2.12416c1.63864,0.78897 2.67038,4.55178 2.67038,4.55178c0,0 -1.09243,-1.76002 -2.4883,-2.24554c-1.33519,-0.54621 -2.85245,2.30623 -5.58351,2.4883c-2.73107,0.18207 -14.01947,-6.97939 -14.01947,-6.97939c0,0 12.38083,4.36971 14.56569,4.30902z" fill="#634128" stroke="#010101" stroke-width="1" stroke-linecap="round" stroke-linejoin="round"/><path d="M136.38759,169.65661c0,0 13.29119,-3.39866 15.77949,-2.42761c2.4883,0.97105 2.91314,4.12694 4.36971,4.00556c1.45657,-0.12138 3.21659,-1.39588 3.21659,-1.39588c0,0 -2.36692,3.27728 -4.18763,3.52004c-1.82071,0.24276 -1.69933,-2.73107 -3.7628,-3.45935c-2.18485,-0.66759 -15.41535,-0.24276 -15.41535,-0.24276z" fill="#634128" stroke="#010101" stroke-width="1" stroke-linecap="round" stroke-linejoin="round"/><path d="M136.75174,188.16717c0.12138,2.00278 3.33797,2.79176 2.549,4.24833c-0.78897,1.45657 -4.97661,2.549 -4.97661,2.549c0,0 1.94209,-1.03174 2.42761,-2.30623c0.54621,-1.2745 -2.73107,-2.4883 -3.03452,-4.91592c-0.30345,-2.42761 8.86079,-8.67872 8.86079,-8.67872c0,0 -6.00835,7.10077 -5.82627,9.10355z" fill="#634128" stroke="#010101" stroke-width="1" stroke-linecap="round" stroke-linejoin="round"/><path d="M142.27456,167.65383c0.84967,-0.36414 2.06347,-0.42483 3.33797,0.30345c3.58073,2.06347 -0.42483,8.49665 -0.42483,8.49665c0,0 0.12138,2.79176 -2.67038,2.97383c-2.79176,0.18207 -2.36692,-0.72828 -2.36692,-0.72828" fill="#f4c28c" stroke="#000000" stroke-width="1" stroke-linecap="round" stroke-linejoin="round"/><path d="M139.72556,151.51019l6.3118,15.29397c-2.12416,0 -2.91314,0.36414 -2.97383,1.15312c-4.4304,-5.09799 -8.98217,-13.8374 -11.10634,-20.57403c-0.24276,-0.84967 0.78897,-0.54621 0.54621,-1.39588c1.63864,-1.63864 4.49109,3.21659 7.22215,5.52282z" fill="#634128" stroke="none" stroke-width="1" stroke-linecap="butt" stroke-linejoin="miter"/><path d="M143.12422,168.01797c-5.0373,-5.76558 -9.52839,-13.71602 -11.65255,-20.99886" fill="#634128" stroke="#010101" stroke-width="1" stroke-linecap="round" stroke-linejoin="round"/><path d="M132.38203,146.47289c0,0 15.29397,21.05955 14.74776,28.9493c-0.54621,7.88975 -6.3118,11.956 -5.40144,16.02226c0.91036,4.06625 4.24833,7.58629 4.24833,7.58629c0,0 -7.40422,-3.58073 -8.8001,-8.43596c-1.39588,-4.85523 4.24833,-7.34353 4.55178,-13.8374c0.30345,-6.49387 -9.34632,-30.28449 -9.34632,-30.28449z" fill="#634128" stroke="#010101" stroke-width="1" stroke-linecap="round" stroke-linejoin="round"/><path d="M105.92103,143.31699c0,0 7.04008,-6.25111 9.77115,-6.3118c2.73107,-0.06069 4.49109,2.67038 5.82627,2.06347c1.33519,-0.6069 2.24554,-2.42761 2.24554,-2.42761c0,0 -0.66759,3.82349 -2.18485,4.73385c-1.51726,0.91036 -2.79176,-1.82071 -5.0373,-1.76002c-2.24554,0.12138 -10.62081,3.70211 -10.62081,3.70211z" fill="#634128" stroke="#010101" stroke-width="1" stroke-linecap="round" stroke-linejoin="round"/><path d="M135.35586,151.51019c0,0 11.28841,-2.00278 13.16981,-0.24276c1.82071,1.82071 0.72828,4.79454 2.12416,5.28006c1.39588,0.48552 3.52004,-0.06069 3.52004,-0.06069c0,0 -3.70211,2.06347 -5.46213,1.63864c-1.76002,-0.42483 -0.30345,-3.09521 -1.8814,-4.55178c-1.51726,-1.39588 -11.47048,-2.06347 -11.47048,-2.06347z" fill="#634128" stroke="#010101" stroke-width="1" stroke-linecap="round" stroke-linejoin="round"/><path d="M116.60254,144.59149c0,0 6.00835,-5.70489 8.61803,-5.15868c2.60969,0.54621 3.64142,3.58073 5.09799,3.27728c1.45657,-0.30345 2.85245,-1.82071 2.85245,-1.82071c0,0 -1.76002,3.58073 -3.45935,4.06625c-1.76002,0.54621 -2.18485,-2.42761 -4.36971,-2.79176c-2.18485,-0.36414 -8.73941,2.42761 -8.73941,2.42761z" fill="#634128" stroke="#010101" stroke-width="1" stroke-linecap="round" stroke-linejoin="round"/><path d="M104.10032,144.95563c2.30623,-7.34353 49.03781,-0.78897 43.87913,19.90644c-1.45657,5.82627 -6.3118,8.98217 -5.40144,12.01669c0.91036,3.03452 4.24833,5.70489 4.24833,5.70489c0,0 -7.40422,-2.73107 -8.8001,-6.3118c-1.39588,-3.58073 2.91314,-5.70489 4.55178,-10.37805c5.34075,-14.99052 -36.23214,-25.55064 -38.47769,-20.93817z" fill="#634128" stroke="#010101" stroke-width="1" stroke-linecap="round" stroke-linejoin="round"/><path d="M144.5201,166.98624c0,0 7.88975,5.0373 9.40701,7.04008c1.51726,2.00278 1.03174,2.73107 0.6069,4.00556c-0.42483,1.39588 3.27728,2.24554 4.18763,1.8814c0,0 -4.67316,1.09243 -6.3118,0.42483c-1.63864,-0.66759 -0.36414,-3.03452 -1.69933,-4.61247c-1.33519,-1.69933 -6.19042,-8.73941 -6.19042,-8.73941z" fill="#634128" stroke="#010101" stroke-width="1" stroke-linecap="round" stroke-linejoin="round"/><path d="M138.51176,153.57367c4.00556,3.58073 12.44152,16.75054 11.47048,20.87748c-1.03174,4.4304 -6.06904,6.97939 -5.09799,9.28563c0.97105,2.30623 4.36971,4.24833 4.36971,4.24833c0,0 -7.46491,-1.8814 -8.92148,-4.61247c-1.51726,-2.73107 4.12694,-4.30902 4.30902,-8.01113c0.18207,-3.70211 -9.22493,-22.81958 -9.22493,-22.81958" fill="#634128" stroke="#010101" stroke-width="1" stroke-linecap="round" stroke-linejoin="round"/><path d="M139.96831,155.03023c0,0 10.86357,3.39866 11.47048,5.76558c0.54621,2.36692 -2.06347,4.49109 -1.15312,5.52282c0.91036,1.03174 3.09521,1.51726 3.09521,1.51726c0,0 -4.36971,0.12138 -5.6442,-1.03174c-1.2745,-1.15312 1.51726,-2.79176 0.97105,-4.73385c-0.54621,-1.94209 -8.73941,-7.04008 -8.73941,-7.04008z" fill="#634128" stroke="#010101" stroke-width="1" stroke-linecap="round" stroke-linejoin="round"/><path d="M135.05241,146.89773c0,0 11.47048,3.70211 11.83462,7.70768c0.36414,4.00556 -4.79454,7.04008 -3.45935,8.86079c1.33519,1.82071 5.0373,2.97383 5.0373,2.97383c0,0 -5.58351,-1.33519 -7.5256,-3.52004c-1.94209,-2.12416 1.2745,-3.45935 0.84967,-6.73663c-0.24276,-1.63864 -1.8814,-3.94487 -3.52004,-5.88696" fill="#634128" stroke="#010101" stroke-width="1" stroke-linecap="round" stroke-linejoin="round"/><path d="M107.49898,150.35708c0.06069,-0.72828 13.35188,5.82627 13.53395,9.64977c0.12138,2.42761 -2.4883,4.30902 -1.63864,5.40144c0.84967,1.09243 2.97383,1.76002 2.97383,1.76002c0,0 -4.36971,-0.18207 -5.52282,-1.45657c-1.15312,-1.2745 1.76002,-2.67038 1.39588,-4.67316c-0.42483,-1.94209 -10.74219,-10.6815 -10.74219,-10.6815z" fill="#634128" stroke="#010101" stroke-width="1" stroke-linecap="round" stroke-linejoin="round"/><path d="M104.16101,146.89773c0,0 10.74219,7.76837 11.3491,10.13529c0.6069,2.36692 -2.06347,4.49109 -1.15312,5.52282c0.91036,1.03174 3.09521,1.51726 3.09521,1.51726c0,0 -4.36971,0.12138 -5.6442,-1.03174c-1.2745,-1.15312 1.51726,-2.79176 0.97105,-4.73385c-0.54621,-2.00278 -8.61803,-11.40979 -8.61803,-11.40979z" fill="#634128" stroke="#010101" stroke-width="1" stroke-linecap="round" stroke-linejoin="round"/><path d="M105.4962,148.35429c0,0 9.83184,0.18207 11.77393,2.67038c1.94209,2.42761 0.54621,5.46213 2.06347,6.37249c1.51726,0.84967 3.88418,0.78897 3.88418,0.78897c0,0 -4.18763,1.39588 -6.06904,0.48552c-1.8814,-0.91036 -0.18207,-3.52004 -1.82071,-5.46213c-1.63864,-2.00278 -9.83184,-4.85523 -9.83184,-4.85523z" fill="#634128" stroke="#010101" stroke-width="1" stroke-linecap="round" stroke-linejoin="round"/><path d="M103.49342,145.38047c0,0 21.05955,0.66759 25.12581,5.34075c4.06625,4.67316 2.18485,10.37805 5.15868,12.07738c2.97383,1.69933 7.46491,1.57795 7.46491,1.57795c0,0 -7.46491,2.4883 -11.22772,0.72828c-3.7628,-1.76002 -1.03174,-6.61525 -4.55178,-10.37805c-3.52004,-3.82349 -21.96991,-9.34632 -21.96991,-9.34632z" fill="#634128" stroke="#010101" stroke-width="1" stroke-linecap="round" stroke-linejoin="round"/><path d="M117.20944,151.26743c0.06069,-0.72828 13.35188,5.82627 13.53395,9.64977c0.12138,2.42761 -2.4883,4.30902 -1.63864,5.40144c0.84967,1.09243 2.97383,1.76002 2.97383,1.76002c0,0 -4.36971,-0.18207 -5.52282,-1.45657c-1.15312,-1.2745 1.76002,-2.67038 1.39588,-4.67316c-0.36414,-2.00278 -10.74219,-10.6815 -10.74219,-10.6815z" fill="#634128" stroke="#010101" stroke-width="1" stroke-linecap="round" stroke-linejoin="round"/><path d="M125.34195,153.27021c0.06069,-0.72828 13.35188,5.82627 13.53395,9.64977c0.12138,2.42761 -2.4883,4.30902 -1.63864,5.40144c0.84967,1.09243 2.97383,1.76002 2.97383,1.76002c0,0 -4.36971,-0.18207 -5.52282,-1.45657c-1.15312,-1.2745 1.76002,-2.67038 1.39588,-4.67316c-0.42483,-1.94209 -10.74219,-10.6815 -10.74219,-10.6815z" fill="#634128" stroke="#010101" stroke-width="1" stroke-linecap="round" stroke-linejoin="round"/><path d="M122.00398,149.75017c0,0 10.74219,7.76837 11.3491,10.13529c0.54621,2.36692 -2.06347,4.49109 -1.15312,5.52282c0.91036,1.03174 3.09521,1.51726 3.09521,1.51726c0,0 -4.36971,0.12138 -5.6442,-1.03174c-1.2745,-1.15312 1.51726,-2.79176 0.97105,-4.73385c-0.6069,-1.94209 -8.61803,-11.40979 -8.61803,-11.40979z" fill="#634128" stroke="#010101" stroke-width="1" stroke-linecap="round" stroke-linejoin="round"/><path d="M123.27848,151.26743c0,0 9.83184,0.18207 11.77393,2.67038c1.94209,2.42761 0.54621,5.46213 2.06347,6.37249c1.51726,0.84967 3.88418,0.78897 3.88418,0.78897c0,0 -4.18763,1.39588 -6.06904,0.48552c-1.94209,-0.91036 -0.18207,-3.52004 -1.82071,-5.46213c-1.63864,-1.94209 -9.83184,-4.85523 -9.83184,-4.85523z" fill="#634128" stroke="#010101" stroke-width="1" stroke-linecap="round" stroke-linejoin="round"/><path d="M121.63984,149.50741c0,0 11.53117,-0.48552 13.04843,1.51726c1.51726,2.00278 -0.06069,4.85523 1.21381,5.52282c1.2745,0.66759 3.52004,0.36414 3.52004,0.36414c0,0 -4.00556,1.57795 -5.6442,0.91036c-1.69933,-0.66759 0.18207,-3.09521 -1.09243,-4.73385c-1.33519,-1.57795 -11.04565,-3.58073 -11.04565,-3.58073z" fill="#634128" stroke="#010101" stroke-width="1" stroke-linecap="round" stroke-linejoin="round"/><path d="M113.87147,147.80808c0,0 10.74219,7.76837 11.3491,10.13529c0.6069,2.36692 -2.06347,4.49109 -1.15312,5.52282c0.91036,1.03174 3.09521,1.51726 3.09521,1.51726c0,0 -4.36971,0.12138 -5.6442,-1.03174c-1.2745,-1.15312 1.51726,-2.79176 0.97105,-4.73385c-0.54621,-2.00278 -8.61803,-11.40979 -8.61803,-11.40979z" fill="#634128" stroke="#010101" stroke-width="1" stroke-linecap="round" stroke-linejoin="round"/><path d="M115.20666,149.26465c0,0 9.83184,0.18207 11.77393,2.67038c1.94209,2.42761 0.54621,5.46213 2.06347,6.37249c1.51726,0.84967 3.88418,0.78897 3.88418,0.78897c0,0 -4.18763,1.39588 -6.06904,0.48552c-1.94209,-0.91036 -0.18207,-3.52004 -1.82071,-5.46213c-1.63864,-1.94209 -9.83184,-4.85523 -9.83184,-4.85523z" fill="#634128" stroke="#010101" stroke-width="1" stroke-linecap="round" stroke-linejoin="round"/><path d="M113.56802,147.50463c0,0 11.53117,-0.48552 13.04843,1.51726c1.51726,2.00278 -0.06069,4.85523 1.21381,5.52282c1.2745,0.66759 3.52004,0.36414 3.52004,0.36414c0,0 -4.00556,1.57795 -5.6442,0.91036c-1.69933,-0.66759 0.18207,-3.09521 -1.09243,-4.73385c-1.33519,-1.57795 -11.04565,-3.58073 -11.04565,-3.58073z" fill="#634128" stroke="#010101" stroke-width="1" stroke-linecap="round" stroke-linejoin="round"/><path d="M103.85756,146.59427c0,0 11.53117,-0.48552 13.04843,1.51726c1.51726,2.00278 -0.06069,4.85523 1.21381,5.52282c1.2745,0.66759 3.52004,0.36414 3.52004,0.36414c0,0 -4.00556,1.57795 -5.6442,0.91036c-1.69933,-0.66759 0.18207,-3.09521 -1.09243,-4.73385c-1.33519,-1.57795 -11.04565,-3.58073 -11.04565,-3.58073z" fill="#634128" stroke="#010101" stroke-width="1" stroke-linecap="round" stroke-linejoin="round"/><path d="M121.70053,147.26187c0,0 11.65255,-2.36692 13.8374,-0.91036c2.18485,1.45657 1.76002,4.61247 3.21659,4.79454c1.45657,0.24276 3.45935,-0.66759 3.45935,-0.66759c0,0 -3.1559,2.67038 -4.97661,2.549c-1.82071,-0.12138 -0.97105,-2.97383 -2.79176,-4.12694c-0.91036,-0.54621 -3.7628,-0.6069 -6.43318,-0.48552" fill="#634128" stroke="#010101" stroke-width="1" stroke-linecap="round" stroke-linejoin="round"/><path d="M110.16936,142.0425c0,0 11.65255,-2.36692 13.8374,-0.91036c2.18485,1.45657 1.76002,4.61247 3.21659,4.79454c1.45657,0.24276 3.45935,-0.66759 3.45935,-0.66759c0,0 -3.1559,2.67038 -4.97661,2.549c-1.82071,-0.12138 -0.97105,-2.97383 -2.79176,-4.12694c-0.91036,-0.54621 -3.7628,-0.6069 -6.43318,-0.48552" fill="#634128" stroke="#010101" stroke-width="1" stroke-linecap="round" stroke-linejoin="round"/><path d="M118.96946,141.13214c0,0 11.04565,-4.12694 13.47326,-3.09521c2.42761,1.09243 2.60969,4.24833 4.12694,4.24833c1.51726,0 3.27728,-1.21381 3.27728,-1.21381c0,0 -2.60969,3.1559 -4.4304,3.27728c-1.82071,0.12138 -1.51726,-2.79176 -3.58073,-3.64142c-1.03174,-0.42483 -3.82349,0 -6.43318,0.54621" fill="#634128" stroke="#010101" stroke-width="1" stroke-linecap="round" stroke-linejoin="round"/><path d="M145.12701,167.41107c0,0 9.71046,6.19042 10.01391,8.61803c0.24276,2.42761 -2.67038,4.24833 -1.8814,5.34075c0.78897,1.09243 2.85245,1.82071 2.85245,1.82071c0,0 -4.36971,-0.30345 -5.46213,-1.63864c-1.09243,-1.2745 1.82071,-2.60969 1.57795,-4.61247c-0.12138,-0.97105 -2.00278,-2.91314 -3.88418,-4.61247" fill="#634128" stroke="#010101" stroke-width="1" stroke-linecap="round" stroke-linejoin="round"/><path d="M92.2657,157.03302c-1.94209,1.63864 -3.82349,3.58073 -4.00556,4.55178c-0.30345,1.94209 2.60969,3.33797 1.51726,4.61247c-1.09243,1.2745 -5.46213,1.57795 -5.46213,1.57795c0,0 2.12416,-0.72828 2.91314,-1.82071c0.78897,-1.15312 -2.12416,-2.97383 -1.82071,-5.40144c0.30345,-2.42761 10.13529,-8.49665 10.13529,-8.49665" fill="#634128" stroke="#010101" stroke-width="1" stroke-linecap="round" stroke-linejoin="round"/><path d="M113.87147,213.65712c3.1559,13.47326 -2.4883,25.42926 -5.15868,36.71767c-0.12138,2.4883 -0.30345,4.97661 1.21381,6.25111c-4.4304,2.00278 -8.07182,-0.42483 -11.956,1.03174c-1.15312,-14.20154 0.54621,-28.22102 4.24833,-42.05842l4.67316,-5.76558z" fill="#424242" stroke="#000000" stroke-width="1" stroke-linecap="round" stroke-linejoin="round"/><path d="M128.01232,209.83363l4.67316,5.76558c3.70211,13.8374 5.40144,27.85688 4.24833,42.05842c-3.88418,-1.45657 -7.5256,0.97105 -11.956,-1.03174c1.51726,-1.2745 1.33519,-3.7628 1.21381,-6.25111c-2.67038,-11.28841 -8.31458,-23.24441 -5.15868,-36.71767z" fill="#424242" stroke="#000000" stroke-width="1" stroke-linecap="round" stroke-linejoin="round"/><g fill="#f4c28c" stroke-width="1"><path d="M98.03129,258.87144l-0.12138,3.52004l0.84967,0.18207l1.33519,2.36692l-1.15312,1.2745l-1.03174,2.36692l-3.64142,0.42483l-0.30345,-2.30623l0.72828,-3.64142l-0.12138,-3.33797z" stroke="none" stroke-linecap="butt" stroke-linejoin="miter"/><path d="M97.84921,260.87422l0.06069,1.51726c1.8814,0.66759 2.60969,1.45657 3.09521,3.21659c0,0 0.97105,1.15312 1.21381,1.76002c0.24276,0.72828 -0.6069,1.09243 -0.97105,1.03174c-1.09243,-0.06069 -1.51726,-1.76002 -2.30623,-2.549l0.06069,0.18207" stroke="#000000" stroke-linecap="round" stroke-linejoin="round"/><path d="M95.05746,267.97499l0.48552,4.24833v0c-0.42483,0.48552 -1.21381,0.24276 -1.39588,-0.36414c-0.36414,-1.15312 -0.91036,-3.70211 -0.84967,-4.67316c0,-2.00278 1.45657,-4.18763 1.45657,-4.18763l-0.42483,-4.97661" stroke="#000000" stroke-linecap="round" stroke-linejoin="round"/><path d="M97.303,267.9143c0,1.45657 0.12138,2.91314 0.36414,4.36971c0.12138,0.6069 -0.36414,1.21381 -1.03174,1.2745v0c-0.36414,0.06069 -0.66759,-0.24276 -0.78897,-0.54621c-0.66759,-1.57795 -0.97105,-3.45935 -0.78897,-5.0373" stroke="#000000" stroke-linecap="round" stroke-linejoin="round"/><path d="M98.88095,265.85083c-0.06069,1.82071 -0.12138,3.58073 0.12138,4.97661c0.12138,0.72828 -0.18207,1.39588 -0.91036,1.51726v0c-0.36414,0.12138 -0.78897,-0.18207 -0.91036,-0.6069c-0.30345,-1.15312 -0.42483,-2.4883 -0.48552,-3.94487" stroke="#000000" stroke-linecap="round" stroke-linejoin="round"/></g><path d="M104.70723,225.7345c-0.78897,11.28841 -3.1559,21.18094 -6.55456,34.47212c-1.51726,0.48552 -3.09521,0.48552 -4.67316,0c-0.91036,-11.40979 1.45657,-24.09407 4.12694,-39.93426c0.12138,-0.78897 0.30345,-1.57795 0.6069,-2.36692c1.8814,-5.0373 6.73663,-8.49665 12.19876,-8.49665v0" fill="#424242" stroke="#000000" stroke-width="1" stroke-linecap="round" stroke-linejoin="round"/><g fill="#f4c28c" stroke-width="1"><path d="M140.08971,259.41765l-0.24276,3.64142l0.72828,3.64142l-0.30345,2.30623l-3.64142,-0.42483l-1.03174,-2.36692l-1.09243,-1.2745l1.2745,-2.36692l0.84967,-0.18207l0.30345,-2.4883z" stroke="none" stroke-linecap="butt" stroke-linejoin="miter"/><path d="M135.53793,266.0329l0.06069,-0.18207c-0.78897,0.78897 -1.21381,2.4883 -2.30623,2.549c-0.36414,0.06069 -1.21381,-0.30345 -0.97105,-1.03174c0.24276,-0.6069 1.21381,-1.76002 1.21381,-1.76002c0.48552,-1.76002 1.21381,-2.549 3.09521,-3.21659l0.06069,-1.51726" stroke="#000000" stroke-linecap="round" stroke-linejoin="round"/><path d="M140.02901,258.75006l-0.24276,4.24833c0,0 1.45657,2.18485 1.45657,4.18763c0.06069,0.97105 -0.48552,3.52004 -0.84967,4.67316c-0.18207,0.6069 -0.97105,0.84967 -1.39588,0.36414v0l0.48552,-4.24833" stroke="#000000" stroke-linecap="round" stroke-linejoin="round"/><path d="M139.4828,267.97499c0.18207,1.57795 -0.12138,3.45935 -0.78897,5.0373c-0.12138,0.30345 -0.42483,0.6069 -0.78897,0.54621v0c-0.66759,-0.06069 -1.15312,-0.66759 -1.03174,-1.2745c0.24276,-1.45657 0.36414,-2.91314 0.36414,-4.36971" stroke="#000000" stroke-linecap="round" stroke-linejoin="round"/><path d="M137.84416,267.79292c-0.06069,1.45657 -0.18207,2.79176 -0.48552,3.94487c-0.12138,0.42483 -0.54621,0.72828 -0.91036,0.6069v0c-0.72828,-0.12138 -1.03174,-0.78897 -0.91036,-1.51726c0.24276,-1.39588 0.18207,-3.1559 0.12138,-4.97661" stroke="#000000" stroke-linecap="round" stroke-linejoin="round"/></g><path d="M124.55297,209.4088v0c5.46213,0 10.31736,3.45935 12.19876,8.49665c0.30345,0.78897 0.48552,1.57795 0.6069,2.36692c2.67038,15.84018 4.36971,28.52447 3.45935,39.93426c-1.45657,0.48552 -3.03452,0.48552 -4.67316,0c-3.39866,-13.29119 -5.09799,-23.18372 -5.88696,-34.47212" fill="#424242" stroke="#000000" stroke-width="1" stroke-linecap="round" stroke-linejoin="round"/><path d="M122.85364,218.26959l-1.94209,-4.61247l4.73385,-7.58629l2.18485,3.7628z" fill="#424242" stroke="#000000" stroke-width="1" stroke-linecap="round" stroke-linejoin="round"/><path d="M106.95277,209.83363l2.18485,-3.7628l4.73385,7.58629l-1.94209,4.61247z" fill="#424242" stroke="#000000" stroke-width="1" stroke-linecap="round" stroke-linejoin="round"/><g stroke="none" stroke-width="1.15528" stroke-linecap="butt" stroke-linejoin="miter"><path d="M110.56281,96.7534l27.0047,47.2556l-45.1841,1.7052l18.1794,-48.9608" fill="#00a100"/><path d="M100.80881,123.0233l4.4109,-11.8786c0.4829,-0.0982 0.9831,-0.1502 1.4949,-0.1502c4.1243,0 7.4689,3.3446 7.4689,7.4689c0,4.1244 -3.3434,7.4689 -7.4689,7.4689c-2.4065,0 -4.5403,-1.1426 -5.9058,-2.909z" fill="#8100ff"/><path d="M123.16581,122.5023c0.8572,0 1.6682,0.1883 2.4053,0.5152l3.4831,6.0941c-0.3304,2.9749 -2.8246,5.2982 -5.8884,5.2982c-3.2891,0 -5.9543,-2.6664 -5.9543,-5.9544c0,-3.2879 2.6652,-5.9543 5.9543,-5.9531z" fill="#2ec7ff"/><path d="M110.04531,129.5668c1.3089,0 2.4942,0.5314 3.3537,1.3898c0.8584,0.8595 1.3898,2.0449 1.3898,3.3538c0,1.3089 -0.5314,2.4942 -1.3898,3.3538c-0.8595,0.8583 -2.0448,1.3898 -3.3537,1.3898c-1.309,0 -2.4943,-0.5315 -3.3538,-1.3898c-0.8584,-0.8596 -1.3898,-2.0449 -1.3898,-3.3538c0,-1.3089 0.5314,-2.4943 1.3898,-3.3538c0.8595,-0.8584 2.0448,-1.3898 3.3538,-1.3898z" fill="#ffff00"/><path d="M105.50391,144.6028c0,0.2079 -0.0151,0.4136 -0.0312,0.6169l-13.0893,0.4945l3.0638,-8.2534c0.7798,-0.2714 1.615,-0.4263 2.4873,-0.4263c4.1798,0 7.5694,3.3896 7.5694,7.5683z" fill="#ffb903"/><path d="M130.93731,144.2597l-12.3834,0.4667c-0.2137,-0.6423 -0.3339,-1.3263 -0.3339,-2.0402c0,-3.5675 2.8917,-6.4592 6.4592,-6.4592c3.5675,0 6.4592,2.8917 6.4592,6.4592c0,0.5441 -0.0751,1.0686 -0.2011,1.5735z" fill="#dc5991"/><path d="M113.09981,101.1943l4.7863,8.3758c-0.7705,0.5164 -1.6971,0.8191 -2.6941,0.8191c-2.6756,0 -4.844,-2.1696 -4.844,-4.8441c0,-1.9224 1.1287,-3.5687 2.7518,-4.3508z" fill="#ff6b00"/></g><path d="M115.61831,90.6755l5.5696,4.0897l-6.5966,-0.7694l5.4448,9.7332l-7.7715,-6.7619l0.7705,13.7929l-4.0307,-15.2127l-12.35,2.1454l8.7235,-5.803l-11.9559,-7.0091l14.4583,2.9945l-1.4707,-9.3751l4.7598,9.5461l10.364,-3.8621l-5.9151,6.4915" fill="#2ec7ff" stroke="none" stroke-width="1.15528" stroke-linecap="butt" stroke-linejoin="miter"/><path d="M88.75001,149.2909l3.229,-9.6882l4.4409,4.8441l5.4495,-3.4312l2.8258,2.8259l4.4409,-3.2291l3.0291,4.0366l5.3478,-6.5597l4.7436,4.9435l4.6419,-3.4301l6.0571,3.2302l5.4495,-7.0657l1.8161,12.3141l-8.0743,-1.6162l-4.6419,4.2399l-5.6528,-3.8356l-5.8526,4.642l-7.0646,-3.8344l-5.2484,5.2484l-2.6248,-4.6442l-5.0451,3.028l-3.2302,-3.4312l-4.0365,1.4129" fill="#2ec7ff" stroke="none" stroke-width="1.15528" stroke-linecap="butt" stroke-linejoin="miter"/><path d="M212.49105,126.47747c-2.23969,16.31378 -21.71659,28.04562 -27.59752,27.84209c-6.41316,-0.22162 -22.25074,-18.06365 -20.01179,-34.37866c2.24034,-16.31384 14.71363,-28.07653 27.86012,-26.27187c13.14643,1.80467 21.9888,16.4946 19.74918,32.80844z" fill="url(#color-1)" stroke="none" stroke-width="1" stroke-linecap="butt" stroke-linejoin="miter"/><path d="M183,155l-48,117" fill="none" stroke="#000000" stroke-width="0.5" stroke-linecap="round" stroke-linejoin="miter"/><path d="M179.78665,157.45219c-0.45219,-0.21336 -0.23884,-0.66555 -0.23884,-0.66555l0.20303,-0.43031c1.45272,-2.9111 2.96831,-1.18639 3.98608,0.71055c0.43709,0.81465 1.74106,1.00442 0.36254,2.32201c-0.14578,0.13933 -2.01335,0.111 -2.31503,0.11051c-1.96063,-0.00315 -3.29477,-0.42692 -4.89312,-0.99941h-0.89099c-0.27614,0 -0.5,-0.22386 -0.5,-0.5c0,-0.27513 0.22222,-0.49836 0.49696,-0.5l0.67475,-0.00469c0.11041,-0.43218 0.67849,-0.69408 1.02699,-1.00843c0.48639,-0.43873 0.96769,-1.60234 1.43703,-2.2198c0.76042,-1.00043 1.6925,-0.76454 2.51039,-1.62063c0,0 0.35356,-0.35356 0.70711,0c0.35356,0.35356 0,0.70711 0,0.70711c-0.71096,0.68684 -1.8975,0.74284 -2.40582,1.49764c-0.46707,0.69355 -1.03358,1.88392 -1.578,2.37741c-0.23754,0.21532 -0.74069,-0.13512 -0.95638,0.10208c-0.10404,0.11442 -0.12287,0.26499 -0.11437,0.42715c1.64966,-0.03732 4.55743,1.60444 6.17201,0.85323c0.03952,-0.01839 -1.00028,-2.95817 -1.92738,-2.91604c-0.61007,0.02772 -0.71381,0.68699 -0.88838,1.08802l-0.20303,0.43032c0,0 -0.21336,0.45219 -0.66555,0.23884z" fill="#00ffff" stroke="none" stroke-width="0.5" stroke-linecap="butt" stroke-linejoin="miter"/></g></g></svg>